<svg width="36" height="36" viewBox="0 0 36 36" fill="none" xmlns="http://www.w3.org/2000/svg">
<rect width="36" height="36" rx="18" fill="#343434"/>
<g clip-path="url(#clip0_339_18366)">
<g clip-path="url(#clip1_339_18366)">
<path d="M25.7137 25.7137H22.2852V19.928C22.2852 19.0206 21.267 18.2616 20.3596 18.2616C19.4522 18.2616 18.8566 19.0206 18.8566 19.928V25.7137H15.428V15.428H18.8566V17.1423C19.4243 16.2239 20.8764 15.6314 21.878 15.6314C23.9964 15.6314 25.7137 17.3811 25.7137 19.4994V25.7137ZM13.7137 25.7137H10.2852V15.428H13.7137V25.7137ZM11.9994 10.2852C12.9462 10.2852 13.7137 11.0527 13.7137 11.9994C13.7137 12.9462 12.9462 13.7137 11.9994 13.7137C11.0527 13.7137 10.2852 12.9462 10.2852 11.9994C10.2852 11.0527 11.0527 10.2852 11.9994 10.2852Z" fill="#FAFAFA"/>
</g>
</g>
<defs>
<clipPath id="clip0_339_18366">
<rect width="22" height="22" fill="white" transform="translate(7 7)"/>
</clipPath>
<clipPath id="clip1_339_18366">
<rect width="22" height="22" fill="white" transform="translate(7 7)"/>
</clipPath>
</defs>
</svg>
