<svg width="36" height="36" viewBox="0 0 36 36" fill="none" xmlns="http://www.w3.org/2000/svg">
<rect width="36" height="36" rx="18" fill="#343434"/>
<g clip-path="url(#clip0_339_18378)">
<g clip-path="url(#clip1_339_18378)">
<path d="M26.9653 12.8675C26.3056 13.1601 25.5966 13.3578 24.8526 13.4467C25.6119 12.9914 26.1953 12.2706 26.4699 11.4115C25.7591 11.8331 24.9719 12.1392 24.1339 12.3042C23.463 11.5892 22.507 11.1426 21.4489 11.1426C19.4174 11.1426 17.7703 12.7895 17.7703 14.821C17.7703 15.1093 17.8028 15.3901 17.8656 15.6594C14.8083 15.5059 12.0977 14.0415 10.2834 11.8159C9.96677 12.3592 9.78537 12.9911 9.78537 13.6652C9.78537 14.9415 10.4348 16.0674 11.4218 16.7271C10.8189 16.7079 10.2516 16.5425 9.75569 16.267C9.75534 16.2823 9.75534 16.2977 9.75534 16.3132C9.75534 18.0955 11.0233 19.5823 12.7061 19.9202C12.3975 20.0043 12.0725 20.0493 11.737 20.0493C11.5 20.0493 11.2695 20.0262 11.0449 19.9833C11.513 21.4447 12.8715 22.5083 14.4812 22.5379C13.2223 23.5246 11.6362 24.1127 9.91267 24.1127C9.61575 24.1127 9.32294 24.0952 9.03516 24.0612C10.6631 25.1049 12.5967 25.714 14.6741 25.714C21.4403 25.714 25.1404 20.1087 25.1404 15.2476C25.1404 15.0881 25.1368 14.9295 25.1297 14.7717C25.8485 14.253 26.4721 13.6052 26.9653 12.8675Z" fill="#FAFAFA"/>
</g>
</g>
<defs>
<clipPath id="clip0_339_18378">
<rect width="22" height="22" fill="white" transform="translate(7 7)"/>
</clipPath>
<clipPath id="clip1_339_18378">
<rect width="22" height="22" fill="white" transform="translate(7 7)"/>
</clipPath>
</defs>
</svg>
