<svg width="36" height="36" viewBox="0 0 36 36" fill="none" xmlns="http://www.w3.org/2000/svg">
<rect width="36" height="36" rx="18" fill="#343434"/>
<g clip-path="url(#clip0_339_18383)">
<g clip-path="url(#clip1_339_18383)">
<path fill-rule="evenodd" clip-rule="evenodd" d="M13.7023 11.906C16.5615 11.6824 19.4337 11.6824 22.2928 11.906L24.2134 12.0563C25.2832 12.14 26.1584 12.9418 26.3352 14.0001C26.7777 16.6483 26.7777 19.3515 26.3352 21.9996C26.1584 23.058 25.2832 23.8598 24.2134 23.9435L22.2928 24.0937C19.4337 24.3174 16.5615 24.3174 13.7023 24.0937L11.7817 23.9435C10.712 23.8598 9.83681 23.058 9.65998 21.9996C9.21751 19.3515 9.21751 16.6483 9.65998 14.0001C9.83681 12.9418 10.712 12.14 11.7817 12.0563L13.7023 11.906ZM16.2833 20.1172V15.8826C16.2833 15.6827 16.5014 15.5593 16.6727 15.6621L20.2015 17.7794C20.3679 17.8793 20.3679 18.1205 20.2015 18.2204L16.6727 20.3376C16.5014 20.4405 16.2833 20.317 16.2833 20.1172Z" fill="#FAFAFA"/>
</g>
</g>
<defs>
<clipPath id="clip0_339_18383">
<rect width="22" height="22" fill="white" transform="translate(7 7)"/>
</clipPath>
<clipPath id="clip1_339_18383">
<rect width="22" height="22" fill="white" transform="translate(7 7)"/>
</clipPath>
</defs>
</svg>
