<svg width="175" height="28" viewBox="0 0 175 28" fill="none" xmlns="http://www.w3.org/2000/svg">
<g id="Group 8382">
<g id="new logo">
<path id="Vector" d="M47.4436 18.7869V7.40918H52.9506V27.2205H47.6641V23.6222H47.4585C47.0115 24.782 46.2665 25.7158 45.2295 26.4206C44.1925 27.1254 42.926 27.4792 41.4361 27.4792C40.11 27.4792 38.9418 27.1789 37.9346 26.5752C36.9274 25.9745 36.1407 25.1181 35.5745 24.0088C35.0113 22.8996 34.7222 21.5703 34.7163 20.024V7.40918H40.2232V19.0426C40.2321 20.2113 40.545 21.1362 41.1679 21.8172C41.7877 22.4952 42.6191 22.8372 43.6621 22.8372C44.3266 22.8372 44.9464 22.6855 45.5245 22.3792C46.1026 22.0729 46.5705 21.6209 46.9281 21.0172C47.2857 20.4165 47.4585 19.6701 47.4525 18.7869H47.4436Z" fill="#201F1E"/>
<path id="Vector_2" d="M71.1431 17.6216C70.1925 16.7443 68.7532 16.1079 66.8222 15.7124L63.2284 14.9927C62.3106 14.7965 61.661 14.5288 61.2795 14.2047C60.9041 13.8805 60.7133 13.4791 60.7133 13.0033C60.7133 12.4115 61.0054 11.9357 61.5924 11.5788C62.1795 11.222 62.8977 11.0436 63.7529 11.0436C64.3906 11.0436 64.9389 11.1506 65.3978 11.3618C65.8627 11.5729 66.2322 11.8524 66.5183 12.2004C66.703 12.4293 66.849 12.6762 66.9444 12.9438H72.0937C71.8375 11.1744 70.9971 9.77078 69.5816 8.73293C68.1423 7.67724 66.1666 7.15088 63.6545 7.15088C61.9589 7.15088 60.4809 7.3977 59.2204 7.89432C57.9599 8.39689 56.9765 9.10168 56.2822 10.0236C55.5878 10.9454 55.2422 12.0398 55.2422 13.3126C55.2422 14.7935 55.713 16.0098 56.6576 16.9644C57.6023 17.9189 59.0416 18.591 60.9845 18.9746L64.4204 19.6616C65.2816 19.8341 65.9193 20.0809 66.3335 20.3991C66.7477 20.7232 66.9593 21.1366 66.9712 21.6332C66.9593 22.225 66.6583 22.7157 66.0713 23.0844C65.4783 23.4591 64.7005 23.6494 63.738 23.6494C62.7755 23.6494 61.947 23.4383 61.3153 23.019C60.8385 22.7008 60.4928 22.2696 60.2842 21.7284H54.7534C55.0663 23.5037 55.9633 24.9133 57.4503 25.963C59.0058 27.0574 61.0948 27.6046 63.726 27.6046C65.4455 27.6046 66.9712 27.331 68.2943 26.7838C69.6144 26.2426 70.6574 25.4813 71.4173 24.494C72.1831 23.5156 72.5646 22.3766 72.5646 21.0801C72.5646 19.6556 72.0878 18.4988 71.1431 17.6216Z" fill="#201F1E"/>
<path id="Vector_3" d="M93.8175 18.7218V17.2141C93.8175 15.528 93.5821 14.053 93.1113 12.7951C92.6345 11.5372 91.9699 10.4874 91.1236 9.65476C90.2773 8.8221 89.288 8.19761 88.1526 7.7783C87.0173 7.359 85.7955 7.15381 84.4873 7.15381C82.5384 7.15381 80.8428 7.57906 79.4005 8.43848C77.9553 9.30385 76.8378 10.4993 76.0422 12.0368C75.2525 13.5772 74.8561 15.3614 74.8561 17.4044C74.8561 19.4474 75.2525 21.3031 76.0422 22.8286C76.8378 24.3542 77.9672 25.5318 79.4393 26.3585C80.9054 27.1912 82.6636 27.6045 84.7019 27.6045C86.3408 27.6045 87.7861 27.3577 89.0407 26.8551C90.2893 26.3466 91.3144 25.6478 92.113 24.7378C92.8699 23.8724 93.3824 22.8732 93.6566 21.7283H88.3613C88.2033 22.0079 88.0096 22.2577 87.7801 22.4718C87.4166 22.8137 86.9845 23.0754 86.475 23.2479C85.9654 23.4204 85.4052 23.5037 84.7913 23.5037C83.8735 23.5037 83.0778 23.3133 82.4014 22.9238C81.7309 22.5372 81.2094 21.99 80.8459 21.2704C80.4763 20.5566 80.2975 19.7121 80.2975 18.7337V18.7218H93.8145H93.8175ZM80.8548 13.3601C81.2183 12.7178 81.716 12.2092 82.3596 11.8286C83.0033 11.448 83.7423 11.2487 84.5767 11.2487C85.4111 11.2487 86.0816 11.4271 86.6925 11.7751C87.2974 12.1171 87.7772 12.6018 88.1199 13.2114C88.4626 13.821 88.6354 14.5228 88.6354 15.3109H80.3065C80.3392 14.5972 80.518 13.9489 80.8548 13.3571V13.3601Z" fill="#201F1E"/>
<path id="Vector_4" d="M169.508 2.39848V10.4158H169.341C169.1 9.88052 168.748 9.33334 168.283 8.78022C167.824 8.2271 167.219 7.76319 166.474 7.38849C165.729 7.01379 164.806 6.82942 163.688 6.82942C162.234 6.82942 160.896 7.20412 159.68 7.95648C158.455 8.71182 157.481 9.83889 156.748 11.3525C156.015 12.8602 155.651 14.7486 155.651 17.0176C155.651 19.2866 156.009 21.0947 156.715 22.6083C157.43 24.1279 158.39 25.2728 159.609 26.0549C160.833 26.8311 162.195 27.2177 163.7 27.2177C164.77 27.2177 165.676 27.0452 166.421 26.6883C167.166 26.3374 167.78 25.8943 168.244 25.3531C168.715 24.8178 169.079 24.2707 169.341 23.7264H169.571V27.2177H175V0.617188L169.508 2.39848ZM169.127 20.0776C168.796 20.9549 168.325 21.6359 167.705 22.1176C167.088 22.6083 166.334 22.8492 165.449 22.8492C164.564 22.8492 163.786 22.6024 163.167 22.1057C162.55 21.6091 162.082 20.9222 161.757 20.0449C161.432 19.1617 161.271 18.1447 161.271 16.9908C161.271 15.837 161.429 14.8408 161.748 13.9695C162.067 13.1041 162.538 12.4231 163.158 11.9354C163.783 11.4447 164.54 11.1979 165.446 11.1979C166.352 11.1979 167.091 11.4388 167.708 11.9116C168.325 12.3815 168.805 13.0565 169.13 13.9219C169.46 14.7932 169.621 15.8162 169.621 16.9938C169.621 18.1714 169.454 19.2004 169.124 20.0776H169.127Z" fill="#201F1E"/>
<g id="Group">
<path id="Vector_5" d="M132.762 7.43604V27.2206H127.255V9.17867L132.762 7.43604Z" fill="#201F1E"/>
<path id="Vector_6" d="M132.762 2.61557V7.43607L132.747 7.43012L127.255 5.69344V0.617188L132.762 2.61557Z" fill="black"/>
</g>
<path id="Vector_7" d="M152.504 10.6272C151.938 9.51499 151.14 8.65557 150.115 8.05784C149.09 7.45416 147.886 7.15381 146.509 7.15381C145.037 7.15381 143.782 7.48985 142.748 8.16489C141.708 8.83994 140.975 9.75587 140.537 10.9067H140.302V9.08974L135.057 7.43632V27.2209H140.564V15.7659C140.57 14.9213 140.737 14.1898 141.05 13.5831C141.362 12.9735 141.8 12.5155 142.37 12.1973C142.93 11.8791 143.585 11.7215 144.328 11.7215C145.43 11.7215 146.297 12.0576 146.929 12.7445C147.555 13.4255 147.865 14.3712 147.859 15.5875V27.2179H153.366V14.6061C153.366 13.0657 153.08 11.7394 152.51 10.6242L152.504 10.6272Z" fill="#201F1E"/>
<g id="Group_2">
<path id="Vector_8" d="M32.4188 7.40918H26.9595V27.2205H32.4188V7.40918Z" fill="#201F1E"/>
<path id="Vector_9" d="M21.6612 27.2205H16.2019L21.5152 7.40918H26.9744L21.6612 27.2205Z" fill="#201F1E"/>
<path id="Vector_10" d="M16.2168 7.40918H10.7576V27.2205H16.2168V7.40918Z" fill="#201F1E"/>
<path id="Vector_11" d="M5.45924 27.2205H0L5.31024 7.40918H10.7725L5.45924 27.2205Z" fill="#201F1E"/>
</g>
<path id="Vector_12" d="M96.112 27.2473V7.43597H101.36V10.9302H101.592C102.006 9.77038 102.695 8.85446 103.66 8.18238C104.626 7.51031 105.779 7.17725 107.123 7.17725C108.467 7.17725 109.644 7.51626 110.601 8.18833C111.557 8.86338 112.195 9.77633 112.514 10.9302H112.719C113.125 9.79417 113.858 8.88717 114.924 8.2032C115.988 7.51923 117.249 7.17725 118.706 7.17725C120.559 7.17725 122.064 7.76308 123.224 8.93772C124.383 10.1124 124.961 11.7747 124.961 13.9218V27.2443H119.469V15.0042C119.469 13.9039 119.177 13.0772 118.59 12.5271C118.003 11.9769 117.273 11.7004 116.394 11.7004C115.395 11.7004 114.615 12.0156 114.054 12.649C113.494 13.2824 113.214 14.1121 113.214 15.144V27.2414H107.877V14.8853C107.877 13.9129 107.6 13.1397 107.043 12.5628C106.485 11.9859 105.755 11.6974 104.852 11.6974C104.241 11.6974 103.69 11.8491 103.204 12.1554C102.719 12.4617 102.331 12.8869 102.048 13.4311C101.765 13.9783 101.622 14.6147 101.622 15.3462V27.2384H96.115L96.112 27.2473Z" fill="#201F1E"/>
</g>
</g>
</svg>
